<?xml version="1.0" standalone="no"?>
<!DOCTYPE svg PUBLIC "-//W3C//DTD SVG 20010904//EN"
 "http://www.w3.org/TR/2001/REC-SVG-20010904/DTD/svg10.dtd">
<svg version="1.0" xmlns="http://www.w3.org/2000/svg"
 width="1280.000000pt" height="802.000000pt" viewBox="0 0 1280.000000 802.000000"
 preserveAspectRatio="xMidYMid meet">
<metadata>
Created by potrace 1.15, written by Peter Selinger 2001-2017
</metadata>
<g transform="translate(0.000000,802.000000) scale(0.100000,-0.100000)"
fill="#000000" stroke="none">
<path d="M860 8003 c1 -42 122 -147 465 -405 349 -262 781 -571 1465 -1050
413 -288 1731 -1197 1917 -1321 109 -73 148 -105 111 -92 -12 4 -556 76 -1773
234 -1565 203 -2700 344 -2957 367 -67 5 -79 4 -84 -10 -22 -59 207 -160 755
-335 632 -202 1976 -580 3046 -856 99 -25 385 -100 635 -165 559 -146 777
-201 1708 -436 l734 -185 656 -441 c362 -243 659 -443 661 -444 2 -2 -10 -25
-27 -51 l-31 -48 186 -190 c339 -345 400 -429 488 -670 72 -199 183 -626 215
-830 6 -38 10 -95 8 -125 l-3 -56 95 -89 c386 -361 766 -659 960 -754 l95 -46
130 1 c420 1 837 226 1094 589 120 171 229 429 280 669 12 55 20 105 17 111
-2 7 -50 38 -105 69 -98 57 -112 68 -91 81 27 17 -3 42 -166 140 l-177 106
-23 -22 c-13 -12 -29 -19 -37 -16 -8 3 -602 346 -1321 761 -718 416 -1310 756
-1316 756 -5 0 -17 -13 -27 -30 -9 -16 -20 -30 -23 -30 -4 0 -39 78 -80 173
-40 94 -106 248 -147 340 -40 93 -73 172 -73 176 0 5 18 16 39 25 22 8 179 78
348 156 170 77 312 140 316 140 3 0 5 -12 4 -27 l-2 -26 1460 -318 c803 -175
1475 -320 1493 -324 27 -5 32 -10 32 -35 0 -22 5 -31 23 -35 34 -8 381 -75
390 -75 4 0 7 9 7 20 0 26 8 25 143 -5 103 -24 112 -24 122 -8 301 486 379
962 229 1395 -80 230 -210 429 -369 569 -70 62 -113 82 -226 108 -201 48 -519
71 -983 72 -301 1 -320 0 -333 -17 -110 -154 -769 -585 -1033 -676 -107 -37
-340 -62 -690 -76 l-175 -7 -13 -64 c-7 -36 -14 -67 -17 -69 -2 -2 -349 42
-772 98 l-768 102 -640 328 c-352 180 -1693 868 -2980 1528 -1287 660 -2396
1228 -2465 1262 -116 58 -133 64 -250 81 -154 23 -150 23 -150 2z m10770
-2760 c52 -8 140 -30 196 -48 609 -199 848 -739 485 -1095 -119 -117 -269
-192 -471 -236 -118 -26 -399 -26 -520 0 -273 58 -459 153 -626 321 -79 78
-99 105 -137 186 -50 103 -67 170 -67 257 1 229 179 448 454 556 204 81 432
101 686 59z m-1563 -3288 c461 -87 890 -463 993 -869 25 -97 27 -246 5 -331
-48 -181 -199 -324 -405 -381 -80 -23 -313 -25 -405 -5 -318 70 -618 262 -808
516 -67 89 -147 248 -172 340 -23 84 -30 231 -15 307 40 210 194 361 425 419
90 22 275 24 382 4z"/>
</g>
</svg>
